<svg width="200" height="200" viewBox="0 0 200 200" xmlns="http://www.w3.org/2000/svg">
  <defs>
    <linearGradient id="tray" x1="0%" x2="100%">
      <stop offset="0%" stop-color="#dfe7ef" />
      <stop offset="100%" stop-color="#c9d3dd" />
    </linearGradient>
  </defs>
  <rect width="200" height="200" rx="24" fill="#f6f7fb" />
  <circle cx="95" cy="76" r="32" fill="#ffd6b0" />
  <path d="M66 160c6-24 14-42 30-42s24 18 30 42z" fill="#111827" />
  <path d="M50 160c5-22 18-72 45-72s40 50 45 72z" fill="#1f2937" />
  <rect x="70" y="118" width="50" height="18" rx="6" fill="#fff" />
  <circle cx="95" cy="74" r="8" fill="#fff3e6" />
  <circle cx="80" cy="70" r="6" fill="#fff3e6" />
  <circle cx="110" cy="70" r="6" fill="#fff3e6" />
  <path d="M68 52c10-18 44-18 54 0-10 8-44 8-54 0z" fill="#1f2937" />
  <path d="M32 132h60c0 14-14 20-30 20s-30-6-30-20z" fill="url(#tray)" />
  <rect x="63" y="132" width="6" height="38" rx="3" fill="#d1d5db" />
  <circle cx="95" cy="76" r="32" fill="none" stroke="#1f2937" stroke-width="3" opacity=".08" />
</svg>
